<?xml version="1.0" encoding="iso-8859-1"?>
<!-- Generator: Adobe Illustrator 19.0.0, SVG Export Plug-In . SVG Version: 6.00 Build 0)  -->
<svg version="1.1" id="Capa_1" xmlns="http://www.w3.org/2000/svg" xmlns:xlink="http://www.w3.org/1999/xlink" x="0px" y="0px"
	 viewBox="0 0 512 512" style="enable-background:new 0 0 512 512;" xml:space="preserve">
<g>
	<g>
		<g>
			<path d="M54.442,34.812c-2.079-0.85-4.409-0.85-6.487,0c-1.044,0.413-1.999,1.023-2.813,1.796
				c-1.559,1.635-2.443,3.799-2.475,6.059c0.013,0.572,0.071,1.141,0.171,1.704c0.091,0.535,0.263,1.053,0.508,1.537
				c0.188,0.544,0.447,1.062,0.771,1.538c0.316,0.447,0.658,0.874,1.025,1.279c0.815,0.771,1.77,1.379,2.813,1.792
				c2.066,0.911,4.421,0.911,6.487,0c1.034-0.434,1.986-1.04,2.817-1.792c0.341-0.429,0.683-0.854,1.021-1.279
				c0.324-0.476,0.583-0.993,0.771-1.538c0.245-0.485,0.418-1.003,0.512-1.538c0.098-0.563,0.155-1.133,0.171-1.704
				c-0.033-2.259-0.917-4.422-2.475-6.059C56.429,35.854,55.476,35.246,54.442,34.812z"/>
			<path d="M91.392,36.608c-0.83-0.754-1.783-1.362-2.817-1.796c-3.178-1.338-6.849-0.629-9.301,1.796
				c-0.754,0.828-1.362,1.78-1.796,2.813c-0.436,1.027-0.667,2.13-0.679,3.246c0.014,0.572,0.071,1.141,0.171,1.704
				c0.091,0.535,0.263,1.053,0.508,1.537c0.187,0.544,0.447,1.062,0.771,1.538c0.316,0.447,0.658,0.874,1.025,1.279
				c1.636,1.558,3.8,2.441,6.059,2.475c1.115-0.014,2.216-0.246,3.242-0.683c1.033-0.434,1.986-1.04,2.817-1.791
				c1.557-1.637,2.44-3.8,2.475-6.059c-0.013-1.116-0.245-2.219-0.683-3.246C92.749,38.389,92.144,37.438,91.392,36.608z"/>
			<path d="M127.317,39.421c-0.188-0.543-0.448-1.058-0.771-1.533c-0.338-0.429-0.679-0.854-1.021-1.28
				c-2.473-2.387-6.121-3.091-9.304-1.796c-1.033,0.434-1.985,1.041-2.813,1.796c-1.573,1.627-2.459,3.796-2.475,6.059
				c0.012,1.115,0.243,2.216,0.679,3.242c0.434,1.034,1.041,1.987,1.796,2.817c0.83,0.752,1.781,1.358,2.813,1.792
				c1.027,0.438,2.13,0.67,3.246,0.683c0.571-0.016,1.141-0.073,1.704-0.171c0.535-0.095,1.053-0.268,1.537-0.513
				c0.544-0.188,1.062-0.447,1.538-0.771c0.425-0.338,0.85-0.679,1.279-1.021c0.752-0.831,1.358-1.783,1.792-2.817
				c0.478-1.012,0.712-2.123,0.683-3.242c-0.015-0.573-0.072-1.144-0.171-1.708C127.734,40.424,127.562,39.906,127.317,39.421z"/>
			<path d="M238.933,34.133h-68.267c-4.713,0-8.533,3.82-8.533,8.533s3.82,8.533,8.533,8.533h68.267c4.713,0,8.533-3.82,8.533-8.533
				S243.646,34.133,238.933,34.133z"/>
			<path d="M170.667,213.333H51.2c-9.422,0.009-17.057,7.645-17.067,17.067v136.533c0.009,9.422,7.645,17.057,17.067,17.067h119.467
				c9.422-0.009,17.057-7.645,17.067-17.067V230.4C187.724,220.978,180.088,213.343,170.667,213.333z M51.2,366.933V230.4h119.467
				l0.012,136.533H51.2z"/>
			<path d="M341.333,213.333H221.867c-9.422,0.009-17.057,7.645-17.067,17.067v136.533c0.009,9.422,7.645,17.057,17.067,17.067
				h119.467c9.422-0.009,17.057-7.645,17.067-17.067V230.4C358.391,220.978,350.755,213.343,341.333,213.333z M221.867,366.933
				V230.4h119.467l0.012,136.533H221.867z"/>
			<path d="M494.933,213.333H409.6V42.667C409.572,19.114,390.486,0.028,366.933,0H42.667C19.114,0.028,0.028,19.114,0,42.667
				v426.667C0.028,492.886,19.114,511.972,42.667,512h324.267c23.553-0.028,42.639-19.114,42.667-42.667v-51.2h59.733
				c4.713,0,8.533-3.82,8.533-8.533s-3.82-8.533-8.533-8.533H409.6V384h85.333c9.422-0.009,17.057-7.645,17.067-17.067V230.4
				C511.991,220.978,504.355,213.343,494.933,213.333z M17.067,42.667c0.015-14.132,11.468-25.585,25.6-25.6h324.267
				c14.132,0.015,25.585,11.468,25.6,25.6v25.6H17.067V42.667z M392.533,401.067c-4.713,0-8.533,3.82-8.533,8.533
				s3.821,8.533,8.533,8.533v51.2c-0.015,14.132-11.468,25.585-25.6,25.6H42.667c-14.132-0.015-25.585-11.468-25.6-25.6v-384
				h375.467v128c-9.422,0.009-17.057,7.645-17.067,17.067v136.533c0.009,9.422,7.645,17.057,17.067,17.067V401.067z
				 M392.533,366.933V230.4h102.4l0.012,136.533H392.533z"/>
			<path d="M102.4,401.067H51.2c-4.713,0-8.533,3.82-8.533,8.533s3.82,8.533,8.533,8.533h51.2c4.713,0,8.533-3.82,8.533-8.533
				S107.113,401.067,102.4,401.067z"/>
			<path d="M170.667,401.067h-34.133c-4.713,0-8.533,3.82-8.533,8.533s3.82,8.533,8.533,8.533h34.133
				c4.713,0,8.533-3.82,8.533-8.533S175.38,401.067,170.667,401.067z"/>
			<path d="M281.6,401.067h-59.733c-4.713,0-8.533,3.82-8.533,8.533s3.82,8.533,8.533,8.533H281.6c4.713,0,8.533-3.82,8.533-8.533
				S286.313,401.067,281.6,401.067z"/>
			<path d="M341.333,401.067h-25.6c-4.713,0-8.533,3.82-8.533,8.533s3.82,8.533,8.533,8.533h25.6c4.713,0,8.533-3.82,8.533-8.533
				S346.046,401.067,341.333,401.067z"/>
			<path d="M511.317,406.354c-0.172-0.524-0.433-1.014-0.771-1.45c-0.338-0.513-0.679-0.938-1.021-1.363
				c-0.429-0.341-0.854-0.683-1.367-1.025c-0.435-0.34-0.925-0.601-1.45-0.771c-0.484-0.246-1.002-0.417-1.537-0.508
				c-2.809-0.562-5.715,0.301-7.763,2.304c-2.765,2.734-3.343,6.986-1.407,10.359c1.936,3.372,5.899,5.018,9.654,4.009
				c3.755-1.009,6.36-4.42,6.344-8.309c-0.015-0.573-0.072-1.144-0.171-1.708C511.734,407.357,511.562,406.839,511.317,406.354z"/>
			<path d="M196.267,136.533h-85.333c-4.713,0-8.533,3.82-8.533,8.533s3.82,8.533,8.533,8.533h85.333
				c4.713,0,8.533-3.821,8.533-8.533S200.979,136.533,196.267,136.533z"/>
			<path d="M128,187.733c4.713,0,8.533-3.82,8.533-8.533s-3.82-8.533-8.533-8.533h-17.067c-4.713,0-8.533,3.82-8.533,8.533
				s3.82,8.533,8.533,8.533H128z"/>
			<path d="M51.2,187.733h17.067c9.422-0.009,17.057-7.645,17.067-17.067V153.6c-0.009-9.422-7.645-17.057-17.067-17.067H51.2
				c-9.422,0.009-17.057,7.645-17.067,17.067v17.067C34.143,180.088,41.778,187.724,51.2,187.733z M51.2,153.6h17.067l0.012,17.067
				H51.2V153.6z"/>
		</g>
	</g>
</g>
<g>
</g>
<g>
</g>
<g>
</g>
<g>
</g>
<g>
</g>
<g>
</g>
<g>
</g>
<g>
</g>
<g>
</g>
<g>
</g>
<g>
</g>
<g>
</g>
<g>
</g>
<g>
</g>
<g>
</g>
</svg>
