<?xml version="1.0" encoding="iso-8859-1"?>
<!-- Generator: Adobe Illustrator 18.0.0, SVG Export Plug-In . SVG Version: 6.00 Build 0)  -->
<!DOCTYPE svg PUBLIC "-//W3C//DTD SVG 1.1//EN" "http://www.w3.org/Graphics/SVG/1.1/DTD/svg11.dtd">
<svg version="1.1" id="Capa_1" xmlns="http://www.w3.org/2000/svg" xmlns:xlink="http://www.w3.org/1999/xlink" x="0px" y="0px"
	 viewBox="0 0 332.264 332.264" style="enable-background:new 0 0 332.264 332.264;" xml:space="preserve">
<path d="M288.138,304.946V89.437h-58.48v215.51H215.8V47.971h-46.559V25.662c11.174,3.83,19.588-8.514,31.314-1.455
	c0-8.706,0-13.059,0-21.765c-11.727-7.059-20.141,5.287-31.314,1.455V0h-6.219v47.971h-46.561v256.976h-13.857V89.437h-58.48v215.51
	H31.132v27.317h270v-27.317H288.138z M88.347,291.253H60.854v-27.491h27.492V291.253z M88.347,241.713H60.854v-27.49h27.492V241.713
	z M88.347,192.173H60.854v-27.491h27.492V192.173z M88.347,142.633H60.854v-27.49h27.492V142.633z M194.339,282.495h-56.416v-27.54
	h56.416V282.495z M194.339,220.311h-56.416v-27.539h56.416V220.311z M194.339,158.126h-56.416v-27.538h56.416V158.126z
	 M194.339,95.941h-56.416V68.403h56.416V95.941z M271.407,291.253h-27.49v-27.491h27.49V291.253z M271.407,241.713h-27.49v-27.49
	h27.49V241.713z M271.407,192.173h-27.49v-27.491h27.49V192.173z M271.407,142.633h-27.49v-27.49h27.49V142.633z"/>
<g>
</g>
<g>
</g>
<g>
</g>
<g>
</g>
<g>
</g>
<g>
</g>
<g>
</g>
<g>
</g>
<g>
</g>
<g>
</g>
<g>
</g>
<g>
</g>
<g>
</g>
<g>
</g>
<g>
</g>
</svg>
