<?xml version="1.0" encoding="iso-8859-1"?>
<!-- Generator: Adobe Illustrator 19.0.0, SVG Export Plug-In . SVG Version: 6.00 Build 0)  -->
<svg version="1.1" id="Capa_1" xmlns="http://www.w3.org/2000/svg" xmlns:xlink="http://www.w3.org/1999/xlink" x="0px" y="0px"
	 viewBox="0 0 512.001 512.001" style="enable-background:new 0 0 512.001 512.001;" xml:space="preserve">
<g transform="translate(0 -1)">
	<g>
		<g>
			<path d="M307.201,120.581c2.263,0.001,4.434-0.898,6.035-2.499c1.6-1.6,2.499-3.771,2.499-6.035
				c0.005-4.711,3.822-8.529,8.533-8.533c4.713,0,8.533-3.82,8.533-8.533s-3.82-8.533-8.533-8.533
				c-14.132,0.015-25.585,11.468-25.6,25.6c-0.001,2.263,0.898,4.434,2.499,6.035C302.767,119.682,304.938,120.581,307.201,120.581z
				"/>
			<path d="M503.593,241.426l-20.217-30.621c-1.981-2.994-1.878-6.907,0.258-9.792l18.067-24.55c3.64-4.831,4.413-11.242,2.025-16.8
				c-2.387-5.65-7.618-9.588-13.708-10.317l-23.717-2.962c-4.028-0.58-8.13-0.365-12.075,0.633l-59.884,13.559
				c-7.472,1.701-14.853,3.775-22.117,6.217l-22.358,7.547v-8.406c22.899-10.822,36.495-34.898,33.936-60.096
				c-2.559-25.198-20.717-46.049-45.324-52.047c-24.607-5.998-50.323,4.16-64.19,25.354c-13.866,21.194-12.874,48.826,2.477,68.971
				l-55.275-10.249c-4.264-0.679-8.628,0.238-12.258,2.575l-61.075,40.138c-1.45,0.995-2.754,2.186-3.875,3.541l-15.725,19.571
				c-5.718,7.15-7.435,16.705-4.565,25.399c2.87,8.694,9.939,15.348,18.79,17.688c1.006,0.263,1.961,0.693,2.825,1.271l3.292,7.667
				c0.487,1.136,1.214,2.153,2.133,2.979c6.673,6.029,16.011,8.134,24.625,5.55c8.42-2.4,14.99-9.002,17.35-17.434l5.125-15.7
				c2.243-6.879,7.258-12.507,13.833-15.525l13.125-5.813v16.212c0.025,6.428,3.649,12.3,9.383,15.204l28.633,14.534l-48.625,18.496
				c-0.458,0.146-0.767,0.283-0.708,0.3c-0.434,0.137-0.855,0.311-1.258,0.521l-25.1,12.804c-3.523,1.775-7.541,2.316-11.408,1.538
				l-16.9-3.417c-12.705-2.553-25.906-0.253-37,6.446l-27.683,16.812l-46.192,26.842c-10.956,6.345-15.651,19.731-11.058,31.529
				l3.75,9.529c0.935,2.41,0.728,5.114-0.562,7.354s-3.526,3.775-6.08,4.175l-12.833,2.208c-6.727,1.093-12.736,4.836-16.683,10.392
				c-3.948,5.472-5.538,12.297-4.417,18.95l3.325,20.233c2.012,12.409,12.746,21.514,25.317,21.475h27.392
				c8.132,0.025,15.787-3.831,20.608-10.379l16.483-22.354c1.635-2.139,3.721-3.893,6.108-5.137l17.783-9.021
				c4.471-2.229,9.682-2.438,14.317-0.575l61.633,24.971c5.242,2.175,11.225,1.577,15.933-1.592
				c4.785-3.188,7.657-8.559,7.65-14.308v-2.05c0.069-3.055-0.775-6.061-2.425-8.633l-4.567-7.929l3.167,2.137
				c9.628,6.507,18.089,14.593,25.025,23.917l7.333,9.979c6.032,8.232,16.393,12.072,26.333,9.758l54.067-12.125
				c9.908-2.267,17.553-10.155,19.508-20.129l1.625-8.158c1.951-9.75,10.531-16.756,20.475-16.717
				c4.411,0.013,8.711,1.384,12.317,3.925l43.85,31.729c6.513,4.754,14.697,6.614,22.625,5.142c0.192-0.029,0.375-0.058,0.558-0.096
				c9.962-2.025,18.159-9.074,21.654-18.62c3.495-9.546,1.787-20.222-4.513-28.2l-7.8-10.013l38.542-34.116
				c11.026-9.717,17.338-23.708,17.325-38.405v-35.325C512.019,259.58,509.095,249.787,503.593,241.426z M324.268,69.381
				c23.564,0,42.667,19.102,42.667,42.667c0,23.564-19.102,42.667-42.667,42.667c-23.564,0-42.667-19.102-42.667-42.667
				C281.629,88.494,300.715,69.408,324.268,69.381z M332.801,171.781v102.4c0,4.713-3.82,8.533-8.533,8.533s-8.533-3.82-8.533-8.533
				v-102.4H332.801z M494.935,304.914c0.013,9.799-4.196,19.129-11.55,25.604l-38.775,34.325
				c-6.568,6.083-7.383,16.184-1.875,23.242l7.808,9.941c2.67,3.286,3.391,7.744,1.892,11.704c-1.391,3.891-4.666,6.806-8.692,7.737
				c-0.158,0.021-0.317,0.05-0.483,0.083c-3.37,0.68-6.869-0.099-9.633-2.142l-43.916-31.779
				c-6.511-4.613-14.287-7.103-22.267-7.129c-18.102-0.038-33.698,12.744-37.217,30.5l-1.625,8.158c-0.66,3.35-3.224,6-6.55,6.771
				l-54.067,12.129c-3.312,0.78-6.77-0.489-8.792-3.225l-7.375-10.029c-8.088-10.885-17.961-20.321-29.2-27.908l-3.2-2.162
				c-6.656-4.599-15.636-3.847-21.433,1.796c-5.832,5.396-7.04,14.161-2.883,20.933l4.733,8.004l-0.033,2.163l-61.65-24.979
				c-9.197-3.773-19.581-3.361-28.45,1.129l-17.867,9.058c-4.717,2.43-8.827,5.891-12.025,10.125l-16.525,22.4
				c-1.614,2.194-4.176,3.488-6.9,3.483H28.993c-4.208,0.012-7.802-3.031-8.483-7.183l-3.325-20.25
				c-0.364-2.19,0.164-4.435,1.467-6.233c1.335-1.874,3.369-3.131,5.642-3.487l12.842-2.213c7.619-1.258,14.264-5.887,18.084-12.598
				c3.82-6.711,4.408-14.788,1.6-21.982l-3.758-9.542c-1.539-3.929,0.027-8.393,3.683-10.5l46.392-26.958l27.8-16.879
				c7.451-4.451,16.283-5.991,24.8-4.325l16.808,3.396c7.61,1.531,15.513,0.488,22.467-2.963l24.942-12.721l0.15-0.068l0.175-0.067
				l49-18.638c6.333-2.44,10.608-8.414,10.875-15.196c0.365-6.704-3.295-12.982-9.308-15.967l-28.683-14.487v-16.213
				c0.027-5.76-2.849-11.146-7.649-14.329s-10.881-3.734-16.176-1.467l-13.492,6.1c-10.863,5.05-19.158,14.362-22.925,25.733
				l-5.258,16.133c-0.761,2.869-2.978,5.124-5.833,5.933c-2.392,0.729-4.981,0.394-7.108-0.921l-3.233-7.525
				c-0.45-1.053-1.107-2.004-1.933-2.796c-3.205-3.053-7.134-5.243-11.417-6.363c-3.271-0.826-5.885-3.28-6.917-6.492
				c-1.1-3.221-0.471-6.781,1.667-9.429l15.7-19.55l61-40.121l80.083,14.893v104.603c0,14.138,11.462,25.6,25.6,25.6
				c14.138,0,25.6-11.462,25.6-25.6v-81.834l27.75-9.366c7.642-2.512,14.142-4.337,20.467-5.754l60.15-13.621
				c1.885-0.488,3.849-0.595,5.775-0.313l23.967,3.029l-18.058,24.529c-6.388,8.647-6.707,20.359-0.8,29.342l20.225,30.629
				c3.664,5.572,5.608,12.098,5.592,18.766V304.914z"/>
			<path d="M23.801,285.331l-5.842,11.792c-2.087,4.199-0.389,9.296,3.8,11.404l12.875,6.496c5.227,2.659,11.459,2.419,16.467-0.633
				l35.617-21.562c3.887-2.338,6.68-6.131,7.758-10.537l7.675-30.975c0.959-3.866-0.885-7.882-4.442-9.675l-14.525-7.325
				l-5.392-10.883l6.65-13.429c2.086-4.201,0.388-9.297-3.8-11.408l-13.917-7.017l-5.475-16.579
				c-2.289-7.009-8.826-11.751-16.2-11.75H34.135c-9.441,0.033-17.075,7.7-17.067,17.142v51.65c0.001,2.249,0.89,4.408,2.475,6.004
				l6.059,6.121v3.096l-7.642,15.425c-0.589,1.177-0.894,2.476-0.892,3.792v8.496c0,2.23,0.874,4.372,2.433,5.967L23.801,285.331z
				 M34.135,268.476l7.642-15.429c0.589-1.175,0.895-2.473,0.892-3.788v-8.608c-0.001-2.249-0.89-4.407-2.475-6.004l-6.059-6.121
				v-48.212l10.908,0.033l6.592,19.937c0.71,2.146,2.241,3.922,4.258,4.942l9.5,4.792l-4.767,9.625
				c-1.186,2.385-1.189,5.187-0.009,7.575l8.533,17.221c0.824,1.655,2.159,2.999,3.808,3.833l10.983,5.542l-6.059,24.413
				l-35.566,21.563l-5.308-2.679l4.767-9.629c1.614-3.248,0.995-7.162-1.542-9.754l-6.1-6.233V268.476z"/>
		</g>
	</g>
</g>
<g>
</g>
<g>
</g>
<g>
</g>
<g>
</g>
<g>
</g>
<g>
</g>
<g>
</g>
<g>
</g>
<g>
</g>
<g>
</g>
<g>
</g>
<g>
</g>
<g>
</g>
<g>
</g>
<g>
</g>
</svg>
