<?xml version="1.0" encoding="utf-8"?>
<!-- Generator: Adobe Illustrator 16.0.0, SVG Export Plug-In . SVG Version: 6.00 Build 0)  -->
<!DOCTYPE svg PUBLIC "-//W3C//DTD SVG 1.1//EN" "http://www.w3.org/Graphics/SVG/1.1/DTD/svg11.dtd">
<svg version="1.1" id="Layer_1" xmlns="http://www.w3.org/2000/svg" xmlns:xlink="http://www.w3.org/1999/xlink" x="0px" y="0px"
	 width="512px" height="512px" viewBox="0 0 512 512" enable-background="new 0 0 512 512" xml:space="preserve">
<g>
	<path d="M255.998,243.393c55.23,0,98.068-61.57,98.068-114.553c0-54.053-43.98-98.042-98.068-98.042
		c-54.055,0-98.033,43.989-98.033,98.042C157.965,181.823,200.803,243.393,255.998,243.393z M255.998,65.929
		c34.701,0,62.924,28.226,62.924,62.911c0,35.751-29.018,79.421-62.924,79.421c-33.846,0-62.889-43.67-62.889-79.421
		C193.109,94.155,221.299,65.929,255.998,65.929z"/>
	<path d="M152.531,310.5l-39.498,39.514c-2.703,2.7-5.849,4.767-9.185,6.324v41.049c0,21.331,17.254,38.618,38.608,38.618h227.08
		c21.355,0,38.609-17.288,38.609-38.618v-41.073c-3.336-1.557-6.481-3.621-9.185-6.322l-39.468-39.5
		c-8.799-8.833-13.692-20.567-13.692-33.063c0-12.496,4.862-24.246,13.692-33.088c7.787-7.755,17.829-12.228,28.633-13.243
		c-9.564-13.777-21.956-25.454-36.543-33.812c0.129,1.604,0.319,3.192,0.319,4.813c0,29.474-43.313,96.032-71.724,136.541
		l-11.662-57.128l12.556-12.558c1.366-1.366,1.367-3.582,0.002-4.949l-5.329-5.336c-2.736-2.74-6.449-4.279-10.321-4.279H246.59
		c-3.865,0-7.573,1.535-10.309,4.267l-5.355,5.349c-0.656,0.656-1.025,1.547-1.026,2.476c0,0.929,0.368,1.819,1.025,2.476
		l12.553,12.555l-11.662,57.128c-28.411-40.518-71.692-107.067-71.692-136.541c0-1.622,0.194-3.21,0.288-4.813
		c-14.617,8.348-26.979,20.035-36.543,33.812c10.804,1.024,20.877,5.505,28.663,13.283C170.74,262.611,170.74,292.268,152.531,310.5
		z"/>
	<path d="M79.029,338.654c2.986,2.995,7.053,4.678,11.313,4.678c4.225,0,8.291-1.692,11.313-4.687l39.498-39.523
		c11.949-11.972,11.949-31.397,0-43.369c-5.781-5.775-13.568-9.01-21.705-9.016c-8.135,0-15.916,3.231-21.668,8.985l-39.564,39.522
		c-2.986,3.004-4.672,7.078-4.672,11.321c0,4.243,1.686,8.311,4.703,11.306L79.029,338.654z"/>
	<path d="M370.877,299.114l39.469,39.516c3.018,2.995,7.086,4.687,11.313,4.687c4.256,0,8.326-1.692,11.313-4.671l20.814-20.783
		c2.986-3.001,4.672-7.063,4.672-11.321c0-4.243-1.686-8.309-4.672-11.304l-39.533-39.525c-5.752-5.735-13.539-8.97-21.639-8.97
		c-0.031,0-0.031,0-0.031,0c-8.166,0-15.953,3.234-21.705,8.979C358.898,267.709,358.928,287.142,370.877,299.114z"/>
	<path d="M495.412,454.762V368.2c0-3.194-1.27-6.269-3.557-8.525l-28.537-28.584l-17.098,17.049l25.039,25.058v75.829H40.734
		v-75.829l25.041-25.049L48.711,331.1l-28.566,28.575c-2.291,2.256-3.561,5.331-3.561,8.525v86.562
		c-2.416,2.813-4.004,6.355-4.004,10.352c0,8.891,7.18,16.088,16.082,16.088h454.676c8.896,0,16.082-7.198,16.082-16.088
		C499.42,461.117,497.826,457.576,495.412,454.762z"/>
</g>
</svg>
