<svg height="512pt" viewBox="-17 0 512 512.00008" width="512pt" xmlns="http://www.w3.org/2000/svg"><path d="m112.808594 173.550781h-52.066406c-4.792969 0-8.675782 3.882813-8.675782 8.675781v52.066407c0 4.792969 3.882813 8.675781 8.675782 8.675781h52.066406c4.792968 0 8.675781-3.882812 8.675781-8.675781v-52.066407c0-4.792968-3.882813-8.675781-8.675781-8.675781zm-8.679688 52.0625h-34.707031v-34.707031h34.707031zm0 0"/><path d="m199.582031 173.550781h-52.066406c-4.789063 0-8.675781 3.882813-8.675781 8.675781v52.066407c0 4.792969 3.886718 8.675781 8.675781 8.675781h52.066406c4.792969 0 8.679688-3.882812 8.679688-8.675781v-52.066407c0-4.792968-3.886719-8.675781-8.679688-8.675781zm-8.675781 52.0625h-34.710938v-34.707031h34.710938zm0 0"/><path d="m286.359375 173.550781h-52.066406c-4.792969 0-8.679688 3.882813-8.679688 8.675781v52.066407c0 4.792969 3.886719 8.675781 8.679688 8.675781h52.0625c4.792969 0 8.679687-3.882812 8.679687-8.675781v-52.066407c0-4.792968-3.886718-8.675781-8.675781-8.675781zm-8.679687 52.0625h-34.710938v-34.707031h34.710938zm0 0"/><path d="m321.066406 242.96875h52.066406c4.792969 0 8.675782-3.882812 8.675782-8.675781v-52.066407c0-4.792968-3.882813-8.675781-8.675782-8.675781h-52.066406c-4.792968 0-8.675781 3.882813-8.675781 8.675781v52.066407c0 4.792969 3.882813 8.675781 8.675781 8.675781zm8.679688-52.0625h34.707031v34.707031h-34.707031zm0 0"/><path d="m112.808594 260.324219h-52.066406c-4.792969 0-8.675782 3.886719-8.675782 8.679687v52.0625c0 4.792969 3.882813 8.679688 8.675782 8.679688h52.066406c4.792968 0 8.675781-3.886719 8.675781-8.679688v-52.0625c0-4.792968-3.882813-8.679687-8.675781-8.679687zm-8.679688 52.066406h-34.707031v-34.710937h34.707031zm0 0"/><path d="m199.582031 260.324219h-52.066406c-4.789063 0-8.675781 3.886719-8.675781 8.679687v52.0625c0 4.792969 3.886718 8.679688 8.675781 8.679688h52.066406c4.792969 0 8.679688-3.886719 8.679688-8.679688v-52.0625c0-4.792968-3.886719-8.679687-8.679688-8.679687zm-8.675781 52.066406h-34.710938v-34.710937h34.710938zm0 0"/><path d="m286.359375 260.324219h-52.066406c-4.792969 0-8.679688 3.886719-8.679688 8.679687v52.0625c0 4.792969 3.886719 8.679688 8.679688 8.679688h52.0625c4.792969 0 8.679687-3.886719 8.679687-8.679688v-52.0625c0-4.792968-3.886718-8.679687-8.675781-8.679687zm-8.679687 52.066406h-34.710938v-34.710937h34.710938zm0 0"/><path d="m321.066406 329.746094h52.066406c4.792969 0 8.675782-3.886719 8.675782-8.679688v-52.0625c0-4.792968-3.882813-8.679687-8.675782-8.679687h-52.066406c-4.792968 0-8.675781 3.886719-8.675781 8.679687v52.0625c0 4.792969 3.882813 8.679688 8.675781 8.679688zm8.679688-52.066406h34.707031v34.710937h-34.707031zm0 0"/><path d="m112.808594 347.101562h-52.066406c-4.792969 0-8.675782 3.882813-8.675782 8.675782v52.066406c0 4.792969 3.882813 8.675781 8.675782 8.675781h52.066406c4.792968 0 8.675781-3.882812 8.675781-8.675781v-52.066406c0-4.792969-3.882813-8.675782-8.675781-8.675782zm-8.679688 52.0625h-34.707031v-34.710937h34.707031zm0 0"/><path d="m199.582031 347.101562h-52.066406c-4.789063 0-8.675781 3.882813-8.675781 8.675782v52.066406c0 4.792969 3.886718 8.675781 8.675781 8.675781h52.066406c4.792969 0 8.679688-3.882812 8.679688-8.675781v-52.066406c0-4.792969-3.886719-8.675782-8.679688-8.675782zm-8.675781 52.0625h-34.710938v-34.710937h34.710938zm0 0"/><path d="m286.359375 347.101562h-52.066406c-4.792969 0-8.679688 3.882813-8.679688 8.675782v52.066406c0 4.792969 3.886719 8.675781 8.679688 8.675781h52.0625c4.792969 0 8.679687-3.882812 8.679687-8.675781v-52.066406c0-4.792969-3.886718-8.675782-8.675781-8.675782zm-8.679687 52.0625h-34.710938v-34.710937h34.710938zm0 0"/><path d="m433.875 350.164062v-306.777343c0-4.792969-3.886719-8.675781-8.679688-8.675781h-43.386718v-8.679688c0-14.375-11.652344-26.03125-26.03125-26.03125s-26.03125 11.65625-26.03125 26.03125v8.679688h-17.355469v-8.679688c0-14.375-11.65625-26.03125-26.03125-26.03125-14.378906 0-26.035156 11.65625-26.035156 26.03125v8.679688h-17.355469v-8.679688c0-14.375-11.652344-26.03125-26.03125-26.03125s-26.03125 11.65625-26.03125 26.03125v8.679688h-17.355469v-8.679688c0-14.375-11.65625-26.03125-26.035156-26.03125-14.375 0-26.03125 11.65625-26.03125 26.03125v8.679688h-17.355469v-8.679688c0-14.375-11.652344-26.03125-26.03125-26.03125s-26.03125 11.65625-26.03125 26.03125v8.679688h-43.390625c-4.789062 0-8.675781 3.882812-8.675781 8.675781v416.519531c0 4.792969 3.886719 8.679688 8.675781 8.679688h306.777344c23.917969 41.484374 76.9375 55.726562 118.421875 31.8125 41.484375-23.917969 55.726562-76.9375 31.8125-118.421876-7.621094-13.21875-18.59375-24.191406-31.8125-31.8125zm-86.773438-324.132812c0-4.792969 3.882813-8.675781 8.675782-8.675781 4.792968 0 8.675781 3.882812 8.675781 8.675781v34.710938c0 4.792968-3.882813 8.679687-8.675781 8.679687-4.792969 0-8.675782-3.886719-8.675782-8.679687zm-69.421874 0c0-4.792969 3.886718-8.675781 8.679687-8.675781 4.789063 0 8.675781 3.882812 8.675781 8.675781v34.710938c0 4.792968-3.886718 8.679687-8.675781 8.679687-4.792969 0-8.679687-3.886719-8.679687-8.679687zm-69.417969 0c0-4.792969 3.882812-8.675781 8.675781-8.675781s8.675781 3.882812 8.675781 8.675781v34.710938c0 4.792968-3.882812 8.679687-8.675781 8.679687s-8.675781-3.886719-8.675781-8.679687zm-69.421875 0c0-4.792969 3.886718-8.675781 8.675781-8.675781 4.792969 0 8.679687 3.882812 8.679687 8.675781v34.710938c0 4.792968-3.886718 8.679687-8.679687 8.679687-4.789063 0-8.675781-3.886719-8.675781-8.679687zm-69.417969 0c0-4.792969 3.882813-8.675781 8.675781-8.675781 4.792969 0 8.675782 3.882812 8.675782 8.675781v34.710938c0 4.792968-3.882813 8.679687-8.675782 8.679687-4.792968 0-8.675781-3.886719-8.675781-8.679687zm-52.066406 26.035156h34.710937v8.675782c0 14.378906 11.652344 26.03125 26.03125 26.03125s26.03125-11.652344 26.03125-26.03125v-8.675782h17.355469v8.675782c0 14.378906 11.65625 26.03125 26.03125 26.03125 14.378906 0 26.035156-11.652344 26.035156-26.03125v-8.675782h17.355469v8.675782c0 14.378906 11.652344 26.03125 26.03125 26.03125s26.03125-11.652344 26.03125-26.03125v-8.675782h17.355469v8.675782c0 14.378906 11.65625 26.03125 26.035156 26.03125 14.375 0 26.03125-11.652344 26.03125-26.03125v-8.675782h17.355469v8.675782c0 14.378906 11.65625 26.03125 26.03125 26.03125 14.378906 0 26.035156-11.652344 26.035156-26.03125v-8.675782h34.707031v69.417969h-399.164062zm0 399.164063v-312.390625h399.164062v203.582031c-45.71875-14.375-94.433593 11.035156-108.808593 56.753906-5.324219 16.941407-5.324219 35.113281 0 52.054688zm373.132812 43.386719c-38.339843 0-69.421875-31.078126-69.421875-69.417969 0-38.339844 31.082032-69.421875 69.421875-69.421875 38.339844 0 69.417969 31.082031 69.417969 69.421875-.042969 38.320312-31.097656 69.375-69.417969 69.417969zm0 0"/><path d="m419.773438 392.386719-37.3125 29.867187-20.539063-20.546875c-3.390625-3.386719-8.886719-3.386719-12.273437.003907-3.390626 3.390624-3.386719 8.886718.003906 12.273437l26.03125 26.035156c3.125 3.128907 8.105468 3.402344 11.558594.640625l43.386718-34.710937c3.746094-2.992188 4.355469-8.457031 1.359375-12.203125-2.996093-3.746094-8.460937-4.355469-12.207031-1.359375zm0 0"/></svg>