<svg height="511pt" viewBox="0 -10 511.99902 511" width="511pt" xmlns="http://www.w3.org/2000/svg"><path d="m499.644531 179.25c-.03125-.074219-.070312-.140625-.101562-.210938-.035157-.078124-.066407-.160156-.105469-.234374l-35.699219-70.648438c-7.597656-17.714844-21.417969-31.902344-38.945312-39.972656l-56.40625-25.976563c-.210938-1.367187-.511719-2.738281-.910157-4.097656-10.578124-35.929687-40.867187-37.550781-42.152343-37.605469-.039063 0-.074219.003906-.109375.003906-.066406-.003906-.125-.007812-.191406-.007812h-138.046876c-.066406 0-.128906.007812-.191406.007812-.039062 0-.074218-.003906-.109375-.003906-1.285156.054688-31.574219 1.675782-42.152343 37.605469-.402344 1.359375-.699219 2.730469-.910157 4.097656l-56.40625 25.976563c-17.527343 8.070312-31.347656 22.257812-38.949219 39.972656l-35.695312 70.648438c-.039062.074218-.070312.15625-.105469.234374-.03125.070313-.070312.140626-.101562.210938l-11.753907 27.640625c-1.535156 3.601563-.039062 7.773437 3.429688 9.585937 0 0 67.648438 35.292969 68.042969 35.5 3.039062 1.582032 7.253906.828126 9.488281-2.171874l19.125-25.699219 8.804688-10.484375.402343 270.359375c.007813 4.136719 3.363281 7.488281 7.5 7.488281h277.210938c4.136719 0 7.492187-3.351562 7.5-7.488281l.402343-270.359375 8.800782 10.484375s19.113281 25.675781 19.128906 25.699219c2.179688 2.925781 6.25 3.855468 9.488281 2.171874l68.042969-35.5c3.46875-1.8125 4.960938-5.984374 3.429688-9.585937zm-173.335937-163.5625c5 .835938 20.441406 5.136719 26.777344 26.660156 2.253906 7.65625-1.714844 16.191406-9.027344 19.394532 0 0-34.625 15.136718-34.726563 15.183593-3.503906 1.535157-7.855469 3.011719-10.851562-.324219-2.539063-2.832031-2.695313-7.085937-4.054688-10.484374-5.078125-12.671876-13.296875-20.640626-20.699219-25.527344zm15.003906 63.625v64.832031h-21.472656v-55.445312zm-49.652344-63.8125-35.660156 16.886719-35.660156-16.886719zm-133.367187 31.59375c-.371094-14.449219 13.570312-29.078125 27.402343-31.402344l52.578126 24.898438c-7.402344 4.886718-15.625 12.855468-20.699219 25.53125-1.460938 3.644531-1.535157 8.660156-4.867188 11.253906-3.101562 2.414062-6.851562.953125-10.042969-.453125 0 0-34.707031-15.171875-34.730468-15.183594-5.734375-2.636719-9.480469-8.503906-9.640625-14.644531zm33.867187 41.605469v55.445312h-21.472656v-64.832031zm-118.816406 147.019531-56.230469-29.335938 5.9375-13.960937 60.359375 29.773437zm82.34375 29.542969v121.742187c-4.992188 3.925782-8.214844 10.003906-8.214844 16.832032v25.085937c0 8.4375 3.101563 16.15625 8.214844 22.101563v25.445312h-30.804688s-.421874-282.691406-.421874-283.417969c-.011719-6.609375-8.703126-10.21875-13.246094-4.8125l-18.371094 21.882813-63.480469-31.3125 32.390625-64.105469c.074219-.144531.144532-.292969.207032-.445313 6.117187-14.382812 17.308593-25.90625 31.519531-32.453124l51.804687-23.851563c.058594.152344.125.304687.1875.457031 2.105469 5.292969 5.664063 9.992188 10.214844 13.425782v73.582031c-8.882812 3.109375-15.269531 11.566406-15.269531 21.496093 0 9.925782 6.386719 18.386719 15.269531 21.496094v47.261719c0 4.140625 3.355469 7.5 7.5 7.5 4.140625 0 7.5-3.359375 7.5-7.5v-45.988281h21.472656v192.722656h-21.472656v-117.144531c0-4.140625-3.359375-7.5-7.5-7.5-4.144531 0-7.5 3.359375-7.5 7.5zm36.472656 211.207031h-21.472656v-15.332031c.179688.0625.367188.113281.550781.171875 3.285157 1.03125 6.742188 1.5625 10.183594 1.5625 3.625 0 7.304687-.601563 10.738281-1.765625zm8.214844-48.097656c0 10.027344-8.109375 19.210937-18.414062 19.492187-10.515626.289063-19.488282-8.429687-19.488282-18.941406 0 0 0-25.058594 0-25.082031 0-3.484375 2.949219-6.429688 6.429688-6.429688h25.042968c3.496094 0 6.429688 2.9375 6.429688 6.429688zm-.714844-253.6875h-36.472656c-4.285156 0-7.769531-3.484375-7.769531-7.769532 0-4.285156 3.484375-7.769531 7.769531-7.769531h36.472656c4.285156 0 7.769532 3.484375 7.769532 7.769531 0 4.285157-3.484376 7.769532-7.769532 7.769532zm105.179688 212.320312c-4.992188 3.925782-8.214844 10.003906-8.214844 16.832032v24.535156c0 8.472656 3.105469 16.304687 8.214844 22.359375v25.738281h-97.679688v-25.738281c5.105469-6.054688 8.214844-13.886719 8.214844-22.359375v-24.535156c0-6.828126-3.222656-12.90625-8.214844-16.832032v-198.59375c8.882813-3.109375 15.269532-11.566406 15.269532-21.496094 0-9.929687-6.386719-18.386718-15.269532-21.496093v-51.617188c0 .027344 1.238282.042969 1.3125.042969 4.828125 0 9.65625-1.652344 13.457032-4.636719 4.960937-3.875 6.703124-9.085937 8.578124-14.816406 2.761719-8.425781 8.246094-15.972656 15.660157-21.011719 3.042969-2.074218 6.316406-3.789062 9.832031-4.914062 1.964844.632812 5.570312 2.035156 9.5625 4.710937 6.390625 4.765625 11.523438 10.429688 14.664062 17.851563 1.65625 3.90625 2.335938 8.417968 4.546876 12.164062 4.066406 6.882813 12.101562 11.085938 20.066406 10.609375v51.621094c-8.882813 3.105469-15.273438 11.566406-15.273438 21.496094 0 9.925781 6.390625 18.386719 15.273438 21.492187zm-.273438-220.089844c0-4.28125 3.488282-7.769531 7.773438-7.769531h36.472656c4.285156 0 7.769531 3.488281 7.769531 7.773438 0 4.28125-3.484375 7.769531-7.769531 7.769531h-36.472656c-4.285156-.003906-7.773438-3.488281-7.773438-7.773438zm36.746094 309.554688h-21.472656v-15.363281c3.449218 1.171875 7.09375 1.765625 10.738281 1.765625 3.621094 0 7.242187-.582032 10.683594-1.71875.015625-.003906.035156-.007813.050781-.015625zm8.214844-47.546875c0 9.648437-7.742188 18.066406-17.359375 18.871094-11.097657.929687-20.542969-8.480469-20.542969-19.421875 0 0 0-24.5 0-24.53125 0-3.484375 2.945312-6.429688 6.429688-6.429688h25.046874c3.496094.046875 6.425782 2.90625 6.425782 6.429688zm51.253906-240.679687c-4.417969-5.265626-13.234375-2.035157-13.242188 4.808593l-.421874 283.417969h-30.804688v-25.417969c5.308594-6.15625 8.214844-13.917969 8.214844-22.128906v-25.082031c0-6.832032-3.226563-12.910156-8.214844-16.835938v-43.761718c0-4.140626-3.359375-7.5-7.5-7.5-4.144531 0-7.5 3.359374-7.5 7.5v39.167968h-21.472656v-192.726562h21.472656v123.972656c0 4.140625 3.355469 7.5 7.5 7.5 4.140625 0 7.5-3.359375 7.5-7.5v-125.246094c8.878906-3.109375 15.269531-11.566406 15.269531-21.496094 0-9.925781-6.390625-18.386718-15.269531-21.492187v-73.585937c4.664062-3.519532 8.335938-8.417969 10.402344-13.882813l51.800781 23.851563c14.210937 6.546874 25.40625 18.070312 31.519531 32.453124.0625.148438.132813.300782.207032.445313l32.390624 64.105469-63.476562 31.3125s-18.316406-21.8125-18.375-21.878906zm37.875 47.476562-10.066406-13.523438 60.355468-29.773437 5.941407 13.960937zm0 0"/><path d="m267.179688 166.90625c0 6.175781-5.007813 11.179688-11.179688 11.179688-6.175781 0-11.179688-5.003907-11.179688-11.179688 0-6.171875 5.003907-11.179688 11.179688-11.179688 6.171875 0 11.179688 5.007813 11.179688 11.179688zm0 0"/><path d="m267.179688 235.464844c0 6.175781-5.007813 11.179687-11.179688 11.179687-6.175781 0-11.179688-5.003906-11.179688-11.179687 0-6.171875 5.003907-11.179688 11.179688-11.179688 6.171875 0 11.179688 5.007813 11.179688 11.179688zm0 0"/><path d="m267.179688 98.347656c0 6.175782-5.007813 11.179688-11.179688 11.179688-6.175781 0-11.179688-5.003906-11.179688-11.179688 0-6.171875 5.003907-11.179687 11.179688-11.179687 6.171875 0 11.179688 5.007812 11.179688 11.179687zm0 0"/><path d="m267.179688 304.023438c0 6.175781-5.007813 11.179687-11.179688 11.179687-6.175781 0-11.179688-5.003906-11.179688-11.179687 0-6.171876 5.003907-11.179688 11.179688-11.179688 6.171875 0 11.179688 5.007812 11.179688 11.179688zm0 0"/><path d="m267.179688 372.582031c0 6.175781-5.007813 11.179688-11.179688 11.179688-6.175781 0-11.179688-5.003907-11.179688-11.179688s5.003907-11.179687 11.179688-11.179687c6.171875 0 11.179688 5.003906 11.179688 11.179687zm0 0"/></svg>