<svg height="504pt" viewBox="0 0 504.96314 504" width="504pt" xmlns="http://www.w3.org/2000/svg"><path d="m376.964844 257.84375h-312.671875l18.339843-18.398438c1.285157-.738281 2.351563-1.808593 3.085938-3.097656l22.359375-22.425781c1.386719-.765625 2.53125-1.910156 3.292969-3.300781l22.1875-22.1875c1.488281-.789063 2.707031-2.011719 3.488281-3.507813l21.949219-22.023437c1.601562-.804688 2.898437-2.101563 3.703125-3.703125l21.742187-21.820313c1.707032-.820312 3.082032-2.199218 3.902344-3.90625l21.546875-21.625c1.816406-.828125 3.273437-2.285156 4.101563-4.105468l21.335937-21.417969c1.914063-.84375 3.4375-2.386719 4.265625-4.308594l31.847656-31.949219c3.320313-3.332031 3.320313-8.71875 0-12.050781l-30.160156-30.273437c-7.179688-6.867188-17.625-9.078126-26.972656-5.710938-.519532-.027344-1.039063-.003906-1.550782.070312-1.761718.476563-3.320312 1.519532-4.429687 2.96875-1.175781.789063-2.28125 1.683594-3.292969 2.671876l-174.398437 174.949218c-.28125.25-.550781.519532-.800781.800782l-22.367188 22.445312c-9.957031 9.988281-9.957031 26.15625 0 36.144531l28.160156 28.246094v209.382813c0 14.140624 11.460938 25.601562 25.601563 25.601562h298.664062c14.140625 0 25.601563-11.460938 25.601563-25.601562v-213.332032c0-4.714844-3.820313-8.535156-8.53125-8.535156zm-63.855469 59.734375 18.285156-42.667969h15.566407l-18.289063 42.667969zm-34.132813 0 18.285157-42.667969h15.566406l-18.289063 42.667969zm-34.136718 0 18.289062-42.667969h15.5625l-18.285156 42.667969zm-34.132813 0 18.289063-42.667969h15.574218l-18.289062 42.667969zm-102.398437 0 18.285156-42.667969h15.566406l-18.289062 42.667969zm-34.132813 0 18.285157-42.667969h15.566406l-18.289063 42.667969zm-21.480469 0v-42.667969h21.199219l-18.289062 42.667969zm3.945313-136.796875 12.105469 48.425781-11.519532 11.570313-12.109374-48.441406zm25.597656-25.660156 12.109375 48.417968-11.519531 11.554688-12.125-48.417969zm25.601563-25.667969 12.109375 48.425781-11.523438 11.554688-12.105469-48.425782zm25.597656-25.667969 12.109375 48.425782-11.519531 11.554687-12.152344-48.425781zm25.601562-25.660156 12.109376 48.417969-11.519532 11.554687-12.101562-48.417968zm25.601563-25.667969 12.105469 48.425781-11.519532 11.554688-12.210937-48.425781zm-23.914063 222.453125h15.558594l-18.277344 42.667969h-15.566406zm34.136719 0h15.570313l-18.285156 42.667969h-15.582032zm170.664063 0h2.902344v42.667969h-21.1875zm-112.167969-230.902344-17.066406 17.066407-10.839844-43.359375c1.402344.347656 2.691406 1.054687 3.738281 2.050781zm-43.214844-17.210937 12.101563 48.433594-11.519532 11.554687-12.109374-48.433594zm-190.589843 191.1875 11.5-11.535156 11.71875 46.871093-23.21875-23.285156c-3.320313-3.332031-3.320313-8.71875 0-12.050781zm340.339843 270.261719h-298.664062c-4.714844 0-8.535157-3.820313-8.535157-8.535156v-145.066407h315.734376v145.066407c0 4.714843-3.820313 8.535156-8.535157 8.535156zm0 0"/><path d="m192.515625 403.570312-102.402344-42.667968c-2.632812-1.097656-5.640625-.808594-8.015625.773437s-3.800781 4.25-3.800781 7.101563v85.332031c0 2.855469 1.425781 5.519531 3.800781 7.105469 2.375 1.582031 5.382813 1.871094 8.015625.773437l102.402344-42.667969c3.179687-1.324218 5.25-4.429687 5.25-7.875 0-3.445312-2.070313-6.550781-5.25-7.875zm-97.152344 37.742188v-59.734375l71.679688 29.867187zm0 0"/><path d="m342.828125 351.710938h-119.464844c-4.714843 0-8.535156 3.820312-8.535156 8.535156 0 4.710937 3.820313 8.53125 8.535156 8.53125h119.464844c4.714844 0 8.535156-3.820313 8.535156-8.53125 0-4.714844-3.820312-8.535156-8.535156-8.535156zm0 0"/><path d="m342.828125 385.84375h-119.464844c-4.714843 0-8.535156 3.820312-8.535156 8.535156 0 4.710938 3.820313 8.53125 8.535156 8.53125h119.464844c4.714844 0 8.535156-3.820312 8.535156-8.53125 0-4.714844-3.820312-8.535156-8.535156-8.535156zm0 0"/><path d="m342.828125 419.976562h-119.464844c-4.714843 0-8.535156 3.820313-8.535156 8.535157 0 4.710937 3.820313 8.53125 8.535156 8.53125h119.464844c4.714844 0 8.535156-3.820313 8.535156-8.53125 0-4.714844-3.820312-8.535157-8.535156-8.535157zm0 0"/><path d="m342.828125 454.109375h-119.464844c-4.714843 0-8.535156 3.824219-8.535156 8.535156 0 4.714844 3.820313 8.535157 8.535156 8.535157h119.464844c4.714844 0 8.535156-3.820313 8.535156-8.535157 0-4.710937-3.820312-8.535156-8.535156-8.535156zm0 0"/><path d="m155.097656 18.910156c-4.714844 0-8.535156 3.820313-8.535156 8.535156v8.53125c0 4.714844 3.820312 8.535157 8.535156 8.535157 4.710938 0 8.53125-3.820313 8.53125-8.535157 4.714844 0 8.535156-3.820312 8.535156-8.53125 0-4.714843-3.820312-8.535156-8.535156-8.535156zm0 0"/><path d="m496.429688 18.910156h-213.332032c-4.714844 0-8.535156 3.820313-8.535156 8.535156 0 4.710938 3.820312 8.53125 8.535156 8.53125h204.796875v273.066407h-76.796875c-4.714844 0-8.535156 3.820312-8.535156 8.535156 0 4.710937 3.820312 8.53125 8.535156 8.53125h85.332032c4.714843 0 8.535156-3.820313 8.535156-8.53125v-290.132813c0-4.714843-3.820313-8.535156-8.535156-8.535156zm0 0"/><path d="m146.5625 189.578125v42.667969c0 4.710937 3.820312 8.53125 8.535156 8.53125 4.710938 0 8.53125-3.820313 8.53125-8.53125v-42.667969c0-4.714844-3.820312-8.535156-8.53125-8.535156-4.714844 0-8.535156 3.820312-8.535156 8.535156zm0 0"/><path d="m317.230469 61.578125c0-4.714844-3.820313-8.535156-8.535157-8.535156h-25.597656c-4.714844 0-8.535156 3.820312-8.535156 8.535156 0 4.710937 3.820312 8.53125 8.535156 8.53125h17.066406v76.800781h-110.933593c-4.714844 0-8.535157 3.820313-8.535157 8.535156 0 4.710938 3.820313 8.53125 8.535157 8.53125h119.464843c4.714844 0 8.535157-3.820312 8.535157-8.53125zm0 0"/><path d="m342.828125 163.976562h119.46875c4.710937 0 8.53125-3.820312 8.53125-8.53125v-93.867187c0-4.714844-3.820313-8.535156-8.53125-8.535156h-119.46875c-4.710937 0-8.53125 3.820312-8.53125 8.535156v93.867187c0 4.710938 3.820313 8.53125 8.53125 8.53125zm8.535156-93.867187h102.398438v76.800781h-102.398438zm0 0"/><path d="m308.695312 240.777344c4.714844 0 8.535157-3.820313 8.535157-8.53125v-42.667969c0-4.714844-3.820313-8.535156-8.535157-8.535156h-119.464843c-4.714844 0-8.535157 3.820312-8.535157 8.535156v42.667969c0 4.710937 3.820313 8.53125 8.535157 8.53125 4.710937 0 8.53125-3.820313 8.53125-8.53125v-34.136719h102.402343v34.136719c0 4.710937 3.820313 8.53125 8.53125 8.53125zm0 0"/><path d="m334.296875 232.246094c0 4.710937 3.820313 8.53125 8.53125 8.53125 4.714844 0 8.535156-3.820313 8.535156-8.53125v-34.136719h102.398438v76.800781h-42.664063c-4.714844 0-8.535156 3.820313-8.535156 8.535156 0 4.710938 3.820312 8.53125 8.535156 8.53125h51.199219c4.710937 0 8.53125-3.820312 8.53125-8.53125v-93.867187c0-4.714844-3.820313-8.535156-8.53125-8.535156h-119.46875c-4.710937 0-8.53125 3.820312-8.53125 8.535156zm0 0"/></svg>